<?xml version="1.0" encoding="UTF-8"?>
<svg id="Layer_1" data-name="Layer 1" xmlns="http://www.w3.org/2000/svg" xmlns:xlink="http://www.w3.org/1999/xlink" viewBox="0 0 1047.43 158.7">
  <defs>
    <style>
      .cls-1 {
        fill: url(#Gradiente_sem_nome_21);
      }

      .cls-2 {
        clip-path: url(#clippath-6);
      }

      .cls-3 {
        clip-path: url(#clippath-7);
      }

      .cls-4 {
        clip-path: url(#clippath-4);
      }

      .cls-5 {
        clip-path: url(#clippath-9);
      }

      .cls-6 {
        clip-path: url(#clippath-10);
      }

      .cls-7 {
        fill: #ead6b0;
      }

      .cls-7, .cls-8, .cls-9, .cls-10, .cls-11 {
        fill-rule: evenodd;
      }

      .cls-12, .cls-8 {
        fill: #fff;
      }

      .cls-13 {
        fill: url(#Gradiente_sem_nome_23);
      }

      .cls-14 {
        fill: url(#Gradiente_sem_nome_17);
      }

      .cls-15 {
        clip-path: url(#clippath-11);
      }

      .cls-16 {
        fill: url(#Gradiente_sem_nome_15-2);
      }

      .cls-17 {
        fill: none;
      }

      .cls-18 {
        fill: url(#Gradiente_sem_nome_19);
      }

      .cls-19 {
        clip-path: url(#clippath-1);
      }

      .cls-9 {
        fill: #c9a52e;
      }

      .cls-20 {
        fill: url(#Gradiente_sem_nome_15);
      }

      .cls-21 {
        clip-path: url(#clippath-5);
      }

      .cls-22 {
        fill: url(#Gradiente_sem_nome_14-2);
      }

      .cls-23 {
        clip-path: url(#clippath-8);
      }

      .cls-24 {
        fill: url(#Gradiente_sem_nome_22);
      }

      .cls-25 {
        clip-path: url(#clippath-3);
      }

      .cls-26 {
        fill: #6e4e32;
      }

      .cls-27 {
        fill: #405864;
      }

      .cls-28 {
        fill: url(#Gradiente_sem_nome_16);
      }

      .cls-10, .cls-29 {
        fill: #f9ca12;
      }

      .cls-30 {
        fill: url(#Gradiente_sem_nome_20);
      }

      .cls-31 {
        clip-path: url(#clippath-2);
      }

      .cls-11 {
        fill: #ab9176;
      }

      .cls-32 {
        fill: url(#Gradiente_sem_nome_18);
      }

      .cls-33 {
        clip-path: url(#clippath);
      }

      .cls-34 {
        fill: url(#Gradiente_sem_nome_14);
      }
    </style>
    <clipPath id="clippath">
      <path class="cls-17" d="M602.93.36c-.22,0-.41.17-.41.41v2.77c-2.13.05-4.32.13-6.5.22V1.02c0-.1-.06-.22-.14-.29-.08-.07-.19-.12-.3-.1-2.4.15-4.86.36-7.34.59-.21.02-.37.2-.37.41v2.74c-2.21.24-4.11.47-6.2.76v-2.77c0-.12-.06-.23-.14-.3-.09-.08-.22-.1-.34-.09-1.56.25-3.24.6-4.88.95-.96.2-1.87.39-2.77.57-.19.03-.34.2-.34.39v3c0,.06.02.13.05.19.39.76.8,1.54,1.19,2.31.06.12.19.19.31.2.06,0,.13,0,.19-.02,10.74-1.7,20.77-2.53,30.64-2.57,10.37-.03,20.53,1.22,32.6,3.11h.06c.1,0,.2-.03.27-.09.09-.07.14-.19.14-.31v-.37c.32-.61.66-1.24.98-1.85l.22-.43s.05-.12.05-.19v-3c0-.2-.14-.36-.32-.39l-1.24-.24c-2.07-.42-4.21-.83-6.25-1.17-.12-.02-.23.01-.32.09-.09.07-.14.17-.15.3l-.06,1.62.02.97c-1.7-.23-3.3-.39-4.98-.58-.44-.05-.89-.09-1.34-.14V1.57c0-.21-.16-.38-.37-.41-2.41-.23-4.87-.43-7.34-.59-.12,0-.22.03-.31.1-.08.07-.13.19-.13.29v2.71c-2.13-.09-4.32-.15-6.5-.2V.74c0-.22-.19-.41-.41-.41h-3.03c-1.42,0-2.86,0-4.29.02h.05Z"/>
    </clipPath>
    <linearGradient id="Gradiente_sem_nome_23" data-name="Gradiente sem nome 23" x1="-567.33" y1="621.48" x2="-567.07" y2="621.48" gradientTransform="translate(158033.28 172503.65) scale(277.56 -277.56)" gradientUnits="userSpaceOnUse">
      <stop offset="0" stop-color="#d7b46d"/>
      <stop offset=".51" stop-color="#ecd8b0"/>
      <stop offset=".52" stop-color="#ebd7ae"/>
      <stop offset="1" stop-color="#d7b46b"/>
    </linearGradient>
    <clipPath id="clippath-1">
      <path class="cls-17" d="M574.59,9.96l2.87,2.81s14.77-2.49,28.85-2.49,29.74,2.49,29.74,2.49l1.99-1.86.56-.95s-13.03-2.78-30.9-2.78-33.11,2.78-33.11,2.78Z"/>
    </clipPath>
    <linearGradient id="Gradiente_sem_nome_22" data-name="Gradiente sem nome 22" x1="-567.06" y1="621.16" x2="-566.8" y2="621.16" gradientTransform="translate(142054.85 154983.51) scale(249.49 -249.49)" gradientUnits="userSpaceOnUse">
      <stop offset="0" stop-color="#b69544"/>
      <stop offset=".51" stop-color="#c6a765"/>
      <stop offset="1" stop-color="#b79542"/>
    </linearGradient>
    <clipPath id="clippath-2">
      <path class="cls-17" d="M579.92,12.65l-6.64,15.82s16.61-1.94,34.47-2.34c17.84-.39,32.7,2.36,32.76,2.45-.06-.12-6.98-16.05-6.98-16.05,0,0-11.8-1.5-25.93-1.86-1.02-.02-2.03-.03-3.03-.03-12.98,0-24.66,2.01-24.66,2.01h.01Z"/>
    </clipPath>
    <linearGradient id="Gradiente_sem_nome_21" data-name="Gradiente sem nome 21" x1="-567.2" y1="621.42" x2="-566.94" y2="621.42" gradientTransform="translate(149533.59 163219.17) scale(262.62 -262.62)" gradientUnits="userSpaceOnUse">
      <stop offset="0" stop-color="#dab772"/>
      <stop offset=".51" stop-color="#dfc18a"/>
      <stop offset="1" stop-color="#dab772"/>
    </linearGradient>
    <clipPath id="clippath-3">
      <path class="cls-17" d="M567.77,34.28l-12.25,15.34c4.66,3.88,8.12,8.75,8.84,15.08.86,7.53-2.49,15.1-5.31,21.94-2.81,6.76-5.64,13.74-5.64,21.14,0,1.22.19,2.4.54,3.55,2.8,9.04,16.94,16.52,24.83,20.73,6.25,3.31,12.69,6.43,18.72,10.11,3.05,1.86,6.55,3.97,9.3,6.61,2.75-2.64,5.87-4.74,8.93-6.61,6.03-3.68,12.47-6.8,18.71-10.11,8.44-4.48,25.38-13.17,25.38-24.27,0-7.41-2.82-14.38-5.62-21.14-2.84-6.83-6.1-14.38-5.25-21.92.71-6.33,4.2-11.05,8.86-14.93l-12.38-15.55c-12.44-2.24-24.98-3.29-37.52-3.29-13.41,0-26.82,1.18-40.14,3.33v-.02Z"/>
    </clipPath>
    <radialGradient id="Gradiente_sem_nome_20" data-name="Gradiente sem nome 20" cx="-567.07" cy="621.95" fx="-567.07" fy="621.95" r=".26" gradientTransform="translate(132510.85 -142565.55) scale(232.61 229.37)" gradientUnits="userSpaceOnUse">
      <stop offset="0" stop-color="#03a568"/>
      <stop offset=".39" stop-color="#029c5e"/>
      <stop offset="1" stop-color="#008647"/>
    </radialGradient>
    <clipPath id="clippath-4">
      <path class="cls-17" d="M574.45,84.87h64.3c.53-20.54-10.22-41.62-32.15-41.62s-32.68,21.08-32.15,41.62h-.01Z"/>
    </clipPath>
    <radialGradient id="Gradiente_sem_nome_19" data-name="Gradiente sem nome 19" cx="-565.19" cy="622.24" fx="-565.19" fy="622.24" r=".26" gradientTransform="translate(95490.6 -102920.42) scale(167.92 165.51)" gradientUnits="userSpaceOnUse">
      <stop offset="0" stop-color="#dfefdf"/>
      <stop offset=".14" stop-color="#d5ecdf"/>
      <stop offset=".36" stop-color="#bde4e2"/>
      <stop offset=".65" stop-color="#94d6e6"/>
      <stop offset=".98" stop-color="#5dc5eb"/>
      <stop offset="1" stop-color="#5ac4ec"/>
    </radialGradient>
    <clipPath id="clippath-5">
      <path class="cls-17" d="M574.42,83.51c0,1.53.07,3.05.2,4.57,7.45.24,17.05-.2,17.28,1.22.03.19.43.09.78,0,.36-.1.66-.2.46,0-3.41,3.78.82,10.3,5.13,13.64,13.4,10.39,8.51,16.24-2.36,18.58,3.21,1.22,6.77,1.89,10.68,1.89,12.38,0,21.16-6.63,26.4-16.07-8.02-3.18-21.6-4.84-24.75-11.97-1.04-2.35,5.36-6.78,6.36-8.7,1.93-3.7-10.63-2.92-10.29-3.18l-29.66-.16c.1,0,0,.07-.22.2h0Z"/>
    </clipPath>
    <linearGradient id="Gradiente_sem_nome_18" data-name="Gradiente sem nome 18" x1="-566.71" y1="622.65" x2="-566.45" y2="622.65" gradientTransform="translate(137212.94 150243.93) scale(241.13 -241.13)" gradientUnits="userSpaceOnUse">
      <stop offset="0" stop-color="#fff"/>
      <stop offset=".18" stop-color="#fefaf5"/>
      <stop offset=".48" stop-color="#fdeedd"/>
      <stop offset=".85" stop-color="#fadab5"/>
      <stop offset="1" stop-color="#fad2a3"/>
    </linearGradient>
    <clipPath id="clippath-6">
      <path class="cls-17" d="M574.42,83.33v-.21c-1.67,8.81,2.16,22.48,10.16,31.01,6.55,6.99,15.86,10.01,19.66,9.47.28-.05.53-.02.76,0,.41.03.73.07.88-.22,8.25-15.54-21.84-32.93-.46-39.85,1.47-.47-1.22-.62-5.61-.62-7.39,0-19.67.42-25.39.42h0Z"/>
    </clipPath>
    <linearGradient id="Gradiente_sem_nome_17" data-name="Gradiente sem nome 17" x1="-564.67" y1="622.7" x2="-564.41" y2="622.7" gradientTransform="translate(92199.65 101151.34) scale(162.27 -162.27)" gradientUnits="userSpaceOnUse">
      <stop offset="0" stop-color="#00aeb3"/>
      <stop offset=".18" stop-color="#09afb4"/>
      <stop offset=".47" stop-color="#21b4b9"/>
      <stop offset=".84" stop-color="#49bdc2"/>
      <stop offset="1" stop-color="#5dc1c6"/>
    </linearGradient>
    <clipPath id="clippath-7">
      <path class="cls-17" d="M634.86,64.74c-7.6.08-6.9,8.96-12.14,9.51-1.25.14-4.34-.91-6.48-1.25-2.92-.46-8.6,6.45-9.94,10.18h32.47c-.02-6.35-1.13-12.68-3.31-18.39-.19-.03-.37-.05-.56-.05h-.05Z"/>
    </clipPath>
    <linearGradient id="Gradiente_sem_nome_15" data-name="Gradiente sem nome 15" x1="-570.65" y1="633.95" x2="-570.39" y2="633.95" gradientTransform="translate(-47162.17 43077.86) rotate(90) scale(75.38 -75.38)" gradientUnits="userSpaceOnUse">
      <stop offset="0" stop-color="#15a476"/>
      <stop offset=".33" stop-color="#119b6c"/>
      <stop offset=".87" stop-color="#068554"/>
      <stop offset="1" stop-color="#047f4d"/>
    </linearGradient>
    <clipPath id="clippath-8">
      <path class="cls-17" d="M608.53,101.21c5.28,5.52,14.95,6.24,22.06,9.92,5.42-7.45,8.13-17.42,8.18-27.43l-32.35-.38c-2.95,4.59-4.55,10.94,2.12,17.89Z"/>
    </clipPath>
    <linearGradient id="Gradiente_sem_nome_16" data-name="Gradiente sem nome 16" x1="-564.45" y1="622.91" x2="-564.19" y2="622.91" gradientTransform="translate(83890.25 92023.68) scale(147.58 -147.58)" gradientUnits="userSpaceOnUse">
      <stop offset="0" stop-color="#e9b68a"/>
      <stop offset=".31" stop-color="#e3ae80"/>
      <stop offset=".81" stop-color="#d59a68"/>
      <stop offset="1" stop-color="#cf925d"/>
    </linearGradient>
    <clipPath id="clippath-9">
      <path class="cls-17" d="M631.59,74.55c-2.74.32-4.61,4.77-9.96,8.09h17.13c-.03-2.36-.21-4.72-.54-7.05-1.65-.22-4.19-.83-5.97-1.04h-.65Z"/>
    </clipPath>
    <linearGradient id="Gradiente_sem_nome_15-2" data-name="Gradiente sem nome 15" x1="-577.65" y1="602.69" x2="-577.38" y2="602.69" gradientTransform="translate(-141454.81 136795.78) rotate(90) scale(235.75 -235.75)" xlink:href="#Gradiente_sem_nome_15"/>
    <clipPath id="clippath-10">
      <polygon class="cls-17" points="587.78 68.42 587.78 82.73 597.3 82.73 597.28 68.42 587.78 68.42"/>
    </clipPath>
    <linearGradient id="Gradiente_sem_nome_14" data-name="Gradiente sem nome 14" x1="-544.24" y1="619.61" x2="-543.98" y2="619.61" gradientTransform="translate(20525.7 22767.3) scale(36.62 -36.62)" gradientUnits="userSpaceOnUse">
      <stop offset="0" stop-color="#dad9d8"/>
      <stop offset=".34" stop-color="#e1e1e1"/>
      <stop offset=".9" stop-color="#f4f7f9"/>
      <stop offset="1" stop-color="#f9fcff"/>
    </linearGradient>
    <clipPath id="clippath-11">
      <path class="cls-17" d="M592.5,57.73c-.58,0-.88.72-1.33,1.28-.47.59-.91.95-.91.95l-.05,5.86.21.27-.13,2.07,4.06.06-.14-2.13.84-.19-.09-2.04-.09-3.33s-1.01-.98-1.41-1.59c-.37-.54-.14-1.22-.97-1.22h.01Z"/>
    </clipPath>
    <linearGradient id="Gradiente_sem_nome_14-2" data-name="Gradiente sem nome 14" x1="-564.99" y1="647.58" x2="-564.73" y2="647.58" gradientTransform="translate(44975.17 50729.32) scale(78.24 -78.24)" xlink:href="#Gradiente_sem_nome_14"/>
  </defs>
  <rect class="cls-12" x="528.15" y="34.48" width="1.62" height="89.74"/>
  <g>
    <path class="cls-12" d="M8.83,103.09c-5.89-5.24-8.83-12.85-8.83-22.83s2.9-17.89,8.7-23.16c5.8-5.27,14.37-7.9,25.71-7.9,3.66,0,6.94.26,9.86.79,2.91.53,5.83,1.35,8.74,2.46v17.39c-5.58-2.48-11.32-3.72-17.21-3.72-5.15,0-9.01,1.12-11.58,3.35-2.57,2.23-3.86,5.83-3.86,10.79s1.32,8.34,3.95,10.51c2.63,2.17,6.52,3.25,11.67,3.25,6.01,0,11.75-1.21,17.21-3.63v17.48c-2.85,1.05-5.77,1.83-8.74,2.32-2.98.5-6.26.74-9.86.74-11.29,0-19.87-2.62-25.76-7.86Z"/>
    <path class="cls-12" d="M79.89,50.13h20.92l23.06,59.89h-20.83l-4.65-11.9h-16.09l-4.56,11.9h-20.83l22.97-59.89ZM95.98,84.17l-5.67-14.51-5.58,14.51h11.25Z"/>
    <path class="cls-12" d="M133.59,109.93c-3.75-.68-6.93-1.64-9.53-2.88v-15.62c2.91,1.36,6.14,2.48,9.67,3.35,3.53.87,6.73,1.3,9.58,1.3,2.6,0,4.54-.26,5.81-.79,1.27-.53,1.91-1.44,1.91-2.74,0-1.18-.59-2.09-1.77-2.74-1.18-.65-3.38-1.5-6.6-2.56-.93-.25-2.11-.62-3.53-1.12-4.03-1.36-7.16-2.84-9.39-4.42-2.23-1.58-3.85-3.49-4.84-5.72-.99-2.23-1.49-5.02-1.49-8.37,0-12.28,8.52-18.41,25.58-18.41,3.04,0,6.38.28,10.04.84,3.66.56,6.73,1.21,9.21,1.95v15.72c-5.77-2.29-11.07-3.44-15.9-3.44-2.67,0-4.76.22-6.28.65-1.52.43-2.28,1.27-2.28,2.51,0,.81.33,1.46.98,1.95.65.5,1.58.93,2.79,1.3s3.33.96,6.37,1.77c4.77,1.3,8.43,2.88,10.97,4.74,2.54,1.86,4.28,4,5.21,6.42.93,2.42,1.4,5.36,1.4,8.83,0,5.71-2.22,10.22-6.65,13.53-4.43,3.32-10.9,4.98-19.39,4.98-4.15,0-8.11-.34-11.86-1.02Z"/>
    <path class="cls-12" d="M194,50.13h20.92l23.06,59.89h-20.83l-4.65-11.9h-16.09l-4.56,11.9h-20.83l22.97-59.89ZM210.09,84.17l-5.67-14.51-5.58,14.51h11.25Z"/>
    <path class="cls-12" d="M280.3,103.09c-5.89-5.24-8.83-12.85-8.83-22.83s2.9-17.89,8.7-23.16c5.8-5.27,14.37-7.9,25.71-7.9,3.66,0,6.94.26,9.86.79,2.91.53,5.83,1.35,8.74,2.46v17.39c-5.58-2.48-11.32-3.72-17.21-3.72-5.15,0-9.01,1.12-11.58,3.35-2.57,2.23-3.86,5.83-3.86,10.79s1.32,8.34,3.95,10.51c2.63,2.17,6.52,3.25,11.67,3.25,6.01,0,11.75-1.21,17.21-3.63v17.48c-2.85,1.05-5.77,1.83-8.74,2.32-2.98.5-6.26.74-9.86.74-11.29,0-19.87-2.62-25.76-7.86Z"/>
    <path class="cls-12" d="M330.24,50.13h19.99v59.89h-19.99v-59.89Z"/>
    <path class="cls-12" d="M355.82,50.13h20.83l12.56,36.46,12.65-36.46h20.92l-23.06,59.89h-20.93l-22.97-59.89Z"/>
    <path class="cls-12" d="M428.36,50.13h20v59.89h-20v-59.89Z"/>
    <path class="cls-12" d="M455.79,50.13h20v44.64h25.67v15.25h-45.66v-59.89Z"/>
  </g>
  <g id="c">
    <path class="cls-12" d="M728.26,26.62c-20.6,0-36.2,14.4-36.2,33.7s15.7,33.7,35.9,33.7c12.1,0,21.6-5.2,27.7-12.5v-1.4l-12-10.19h-1.4c-3.3,3.6-8.4,6.3-14.09,6.3-8.9,0-15.9-6.7-15.9-15.9s7-15.9,15.9-15.9c5.7,0,10.8,2.7,14.09,6.3h1.4l12-10.19v-1.4c-6.3-7.6-16.2-12.5-27.4-12.5Z"/>
    <path class="cls-12" d="M765.86,92.78h49.79v-16.28h-29.99v-9.16h22.59v-15.27h-22.59v-9.16h29.99v-16.28h-49.79v66.17Z"/>
    <path class="cls-12" d="M1001.21,22.63l26.11-9.8v-1.4L1020.42.03h-1.4l-23.11,14.2v1.4l3.9,7h1.4Z"/>
    <path class="cls-12" d="M1037.42,69.88l-7.9-17.64-11.49-25.63h-18.2l-27.7,66.18h20.79l3.7-9.97h24.69c2,3.56,4.1,6.31,6.4,8.15,2.7,2.04,5.99,3.05,10.19,3.05,3.67,0,6.91-.78,9.51-2.16l-8.93-19.74c-.35-.64-.69-1.37-1.08-2.22h.01ZM1001.62,69.58l7.3-19.65,6.9,19.65h-14.2Z"/>
    <path class="cls-12" d="M888.32,69.88l-7.9-17.64-11.49-25.63h-18.2l-27.7,66.18h20.79l3.7-9.97h24.69c2,3.56,4.1,6.31,6.4,8.15,2.7,2.04,5.99,3.05,10.19,3.05,3.67,0,6.91-.78,9.51-2.16l-8.93-19.74c-.35-.64-.69-1.37-1.08-2.22h.01ZM852.52,69.58l7.3-19.65,6.9,19.65h-14.2Z"/>
    <path class="cls-12" d="M951.22,66.83c7.2-3.26,12-9.47,12-18.12,0-13.54-9.2-22.09-26.3-22.09h-30.79v66.18h19.8v-23.21h1.6c4.4,0,8.49,9.06,10.9,13.34,4.5,7.94,8.7,11.1,17.69,11.1,4,0,8.1-1.32,10.1-2.95l.06-.16-14.64-23.61c-.14-.15-.28-.32-.42-.46h0ZM936.12,56.34h-10.19v-13.43h10.19c3.7,0,6.9,2.44,6.9,6.92s-3.21,6.51-6.9,6.51Z"/>
    <path class="cls-12" d="M712.93,116.26c0,2.87-1.08,5.44-2.9,7.28-1.79,1.84-4.35,3-7.28,3-5.84,0-10.25-4.47-10.25-10.52s4.52-10.52,10.28-10.52c3.33,0,6.3,1.56,8.12,3.9v.37l-2.88,2.53h-.36c-1.11-1.43-2.79-2.41-4.77-2.41-3.09,0-5.64,2.52-5.64,6.14s2.43,6.09,5.73,6.09c1.43,0,2.75-.5,3.71-1.4.75-.72,1.26-1.62,1.43-2.68h-5.22v-3.59h9.59l.36.31c.06.46.06,1.06.06,1.49h.01Z"/>
    <path class="cls-12" d="M716.62,116.02c0-6.03,4.81-10.52,11.14-10.52s11.12,4.49,11.12,10.52-4.81,10.52-11.12,10.52-11.14-4.5-11.14-10.52ZM733.92,116.02c0-3.59-2.72-6.12-6.16-6.12s-6.16,2.52-6.16,6.12,2.72,6.12,6.16,6.12,6.16-2.56,6.16-6.12Z"/>
    <path class="cls-12" d="M761.72,106.24l-9.15,19.93h-2.87l-9.14-19.93.22-.37h5l5.37,13.05,5.55-13.05h4.81l.22.37h-.01Z"/>
    <path class="cls-12" d="M770.29,109.85v4.22h7.68v3.81h-7.68v4.28h9.99v3.99h-14.86v-20.3h14.8v3.99h-9.93Z"/>
    <path class="cls-12" d="M802.03,125.79l-.22.37h-4.84l-4.1-7.61h-2.85v7.61h-4.87v-20.3h8.74c5.13,0,7.83,2.46,7.83,6.47,0,2.74-1.56,4.65-3.99,5.59l4.28,7.87h.01ZM790.04,115.2h3.9c1.65,0,2.85-1,2.85-2.63s-1.19-2.72-2.85-2.72h-3.9v5.35Z"/>
    <path class="cls-12" d="M824.87,105.87v20.39h-3.03l-10.3-12.08v11.99h-4.84v-20.3h3.03l10.28,12.08v-12.08h4.87-.01Z"/>
    <path class="cls-12" d="M829.55,116.02c0-6.03,4.81-10.52,11.14-10.52s11.12,4.49,11.12,10.52-4.81,10.52-11.12,10.52-11.14-4.5-11.14-10.52ZM846.85,116.02c0-3.59-2.72-6.12-6.16-6.12s-6.16,2.52-6.16,6.12,2.72,6.12,6.16,6.12,6.16-2.56,6.16-6.12Z"/>
    <path class="cls-12" d="M884.04,115.98c0,6.12-4.12,10.18-10.68,10.18h-8.86v-20.3h8.86c6.56,0,10.68,4.06,10.68,10.11ZM879.07,116.02c0-3.84-2.37-6.16-5.87-6.16h-3.84v12.3h3.84c3.49,0,5.87-2.31,5.87-6.16h0Z"/>
    <path class="cls-12" d="M887.52,116.02c0-6.03,4.81-10.52,11.14-10.52s11.12,4.49,11.12,10.52-4.81,10.52-11.12,10.52-11.14-4.5-11.14-10.52ZM904.82,116.02c0-3.59-2.72-6.12-6.16-6.12s-6.16,2.52-6.16,6.12,2.72,6.12,6.16,6.12,6.16-2.56,6.16-6.12Z"/>
    <path class="cls-12" d="M927.34,109.85v4.22h7.68v3.81h-7.68v4.28h9.99v3.99h-14.86v-20.3h14.8v3.99h-9.93Z"/>
    <path class="cls-12" d="M940.69,122.88v-.37l2.41-2.78h.35c1.27,1.47,3.62,2.68,5.62,2.68s3.25-.81,3.25-2c0-1.71-1.97-1.93-4.47-2.72-2.78-.88-6.18-2.44-6.18-6.21,0-3.53,3.12-5.99,7.65-5.99,3.31,0,6.16,1.31,7.61,3.05v.35l-2.41,2.74h-.35c-1-1.03-2.68-2.22-4.81-2.22-1.63,0-2.74.68-2.74,1.81,0,1.34,1.53,1.87,3.18,2.43,3.46,1.1,7.49,2.15,7.49,6.71,0,3.97-3.59,6.16-7.96,6.16-3.62,0-6.84-1.43-8.64-3.66v.02Z"/>
    <path class="cls-12" d="M971.07,126.17h-4.91v-16.3h-6.36v-3.99h17.64v3.99h-6.36v16.3Z"/>
    <path class="cls-12" d="M998.46,125.79l-.22.37h-4.93l-1.47-3.56h-8.59l-1.5,3.56h-4.74l-.22-.37,9.36-19.93h2.96l9.34,19.93h.01ZM990.46,119.22l-2.84-6.9-2.94,6.9h5.77Z"/>
    <path class="cls-12" d="M1021.68,115.98c0,6.12-4.12,10.18-10.68,10.18h-8.86v-20.3h8.86c6.56,0,10.68,4.06,10.68,10.11ZM1016.72,116.02c0-3.84-2.37-6.16-5.87-6.16h-3.84v12.3h3.84c3.49,0,5.87-2.31,5.87-6.16h0Z"/>
    <path class="cls-12" d="M1025.17,116.02c0-6.03,4.81-10.52,11.14-10.52s11.12,4.49,11.12,10.52-4.81,10.52-11.12,10.52-11.14-4.5-11.14-10.52ZM1042.47,116.02c0-3.59-2.72-6.12-6.16-6.12s-6.16,2.52-6.16,6.12,2.72,6.12,6.16,6.12,6.16-2.56,6.16-6.12Z"/>
    <path class="cls-12" d="M654.74,65.44c.71-6.3,5.16-10.63,10.32-13.91l.91-.58-17.21-21.86-.36-.07c-2.06-.39-4.12-.75-6.18-1.08-6.28-.84-10.73-1.41-14.6-1.79-1.06-.09-2.13-.19-3.19-.25h-.1l-.96-.07h-.25l-.25-.03c-2.37-.16-4.76-.28-7.13-.36h-.02c-.28-.01-.57-.02-.86-.03-.24,0-.47,0-.72-.01-8.7-.19-16.4.1-21.87.44-1.9.12-14.16,1.33-16.44,1.61-.13.01-.25.03-.37.05-2.79.38-8.51,1.27-10.6,1.6l-17.22,21.87.91.58c5.15,3.27,9.62,7.6,10.32,13.91.71,6.18-2.64,13.37-4.98,18.99-3.14,7.53-6.05,14.99-6.05,23.28,0,1.78.28,3.54.8,5.24,1.71,5.52,5.97,9.95,10.45,13.48,5.22,4.11,11.28,7.49,17.16,10.6,6.11,3.24,12.44,6.31,18.33,9.89,3.93,2.4,9.18,5.94,11.34,10.08l.88,1.69.88-1.69c2.16-4.14,7.41-7.67,11.33-10.08,5.9-3.59,12.23-6.65,18.34-9.89,5.88-3.12,11.94-6.49,17.16-10.6,4.48-3.53,8.74-7.96,10.45-13.48.52-1.7.8-3.46.8-5.24,0-8.29-2.92-15.74-6.05-23.28-2.34-5.62-5.67-12.81-4.98-18.99"/>
    <path class="cls-7" d="M627.86,4.17l3.47.53.03-2.09-3.51,1.56Z"/>
    <path class="cls-7" d="M596.84,1.38l-.03,2.04,2.01-.14-1.98-1.9Z"/>
    <path class="cls-7" d="M614.75,3.25l2.03.13-.05-2.03-1.98,1.9Z"/>
    <g class="cls-33">
      <rect class="cls-13" x="573.23" y=".34" width="66.72" height="9.74"/>
    </g>
    <g class="cls-19">
      <rect class="cls-24" x="574.59" y="7.19" width="64.02" height="5.59"/>
    </g>
    <g class="cls-31">
      <rect class="cls-1" x="573.28" y="10.65" width="67.23" height="17.95"/>
    </g>
    <path class="cls-7" d="M611.34,25.82l-10.01.13s.19-4.26.64-5.64c.45-1.38,1.38-2.92,2.49-3.6,1.11-.67,2.42-1,3.62-.56,1.22.44,2.03,1.09,2.8,2.42.78,1.33,1.06,2.6,1.32,4.1.24,1.49,0,3.22,0,3.22l-.86-.07Z"/>
    <path class="cls-7" d="M621.74,13.46c-1.6.09-3.03,1.09-2.93,2.4.12,1.31.88,7.35.88,7.35l6.43.46-1.17-8.3s-1.63-2-3.23-1.91"/>
    <g class="cls-25">
      <rect class="cls-30" x="553.41" y="30.95" width="106.43" height="117.81"/>
    </g>
    <path class="cls-8" d="M570.03,54.92l-1.01,3.23h-3.27s2.66,1.99,2.66,1.99l-1.03,3.23,2.65-2,2.66,2-1.03-3.23,2.66-2h-3.27s-1.02-3.22-1.02-3.22Z"/>
    <path class="cls-17" d="M570.03,54.92l-1.01,3.23h-3.27s2.66,1.99,2.66,1.99l-1.03,3.23,2.65-2,2.66,2-1.03-3.23,2.66-2h-3.27s-1.02-3.22-1.02-3.22Z"/>
    <path class="cls-8" d="M567.27,76.92l-1.01,3.23h-3.29l2.66,1.99-1.02,3.24,2.65-2.01,2.65,2.01-1.02-3.24,2.65-1.99h-3.27l-1.01-3.23Z"/>
    <path class="cls-17" d="M567.27,76.92l-1.01,3.23h-3.29l2.66,1.99-1.02,3.24,2.65-2.01,2.65,2.01-1.02-3.24,2.65-1.99h-3.27l-1.01-3.23Z"/>
    <path class="cls-8" d="M563.7,96.62l-1.01,3.24h-3.29s2.66,1.99,2.66,1.99l-1.02,3.23,2.65-2,2.65,2-1.02-3.23,2.65-2h-3.27s-1.01-3.23-1.01-3.23Z"/>
    <path class="cls-17" d="M563.7,96.62l-1.01,3.24h-3.29s2.66,1.99,2.66,1.99l-1.02,3.23,2.65-2,2.65,2-1.02-3.23,2.65-2h-3.27s-1.01-3.23-1.01-3.23Z"/>
    <path class="cls-8" d="M606.4,130.92l-1.01,3.24h-3.27l2.66,1.99-1.03,3.23,2.65-2,2.66,2-1.03-3.23,2.66-1.99h-3.27l-1.02-3.24Z"/>
    <path class="cls-17" d="M606.4,130.92l-1.01,3.24h-3.27l2.66,1.99-1.03,3.23,2.65-2,2.66,2-1.03-3.23,2.66-1.99h-3.27l-1.02-3.24Z"/>
    <path class="cls-8" d="M626.18,122.93l-1.01,3.24h-3.27s2.65,1.99,2.65,1.99l-1.02,3.23,2.65-2,2.65,2-1.02-3.23,2.66-2h-3.29s-1.01-3.23-1.01-3.23Z"/>
    <path class="cls-17" d="M626.18,122.93l-1.01,3.24h-3.27s2.65,1.99,2.65,1.99l-1.02,3.23,2.65-2,2.65,2-1.02-3.23,2.66-2h-3.29s-1.01-3.23-1.01-3.23Z"/>
    <path class="cls-8" d="M586.42,122.93l1.02,3.24h3.27s-2.66,1.99-2.66,1.99l1.02,3.23-2.65-2-2.65,2,1.02-3.23-2.65-2h3.27s1.01-3.23,1.01-3.23Z"/>
    <path class="cls-17" d="M586.42,122.93l1.02,3.24h3.27s-2.66,1.99-2.66,1.99l1.02,3.23-2.65-2-2.65,2,1.02-3.23-2.65-2h3.27s1.01-3.23,1.01-3.23Z"/>
    <path class="cls-8" d="M570.7,112.42l1.01,3.24h3.27s-2.65,1.99-2.65,1.99l1.02,3.23-2.65-2-2.65,2,1.02-3.23-2.66-2h3.29s1.01-3.23,1.01-3.23Z"/>
    <path class="cls-17" d="M570.7,112.42l1.01,3.24h3.27s-2.65,1.99-2.65,1.99l1.02,3.23-2.65-2-2.65,2,1.02-3.23-2.66-2h3.29s1.01-3.23,1.01-3.23Z"/>
    <g class="cls-4">
      <rect class="cls-18" x="573.92" y="43.24" width="65.36" height="41.62"/>
    </g>
    <path class="cls-9" d="M574.44,82.73h18.09v.78h-18.1v-.76"/>
    <path class="cls-17" d="M574.44,82.73h18.09v.78h-18.1v-.76h.01Z"/>
    <path class="cls-9" d="M574.59,79.22l18.03,3.53-.15.75-17.92-3.51c.02-.25.03-.52.06-.78"/>
    <path class="cls-17" d="M574.59,79.22l18.03,3.53-.15.75-17.92-3.51c.02-.25.03-.52.06-.78h-.01Z"/>
    <path class="cls-9" d="M574.99,75.58l17.7,7.21-.3.71-17.52-7.14c.03-.27.07-.52.1-.79"/>
    <path class="cls-17" d="M574.99,75.58l17.7,7.21-.3.71-17.52-7.14c.03-.27.07-.52.1-.79h.01Z"/>
    <path class="cls-9" d="M575.7,71.63l17.07,11.21-.43.64-16.81-11.04c.06-.27.12-.54.17-.81"/>
    <path class="cls-17" d="M575.7,71.63l17.07,11.21-.43.64-16.81-11.04c.06-.27.12-.54.17-.81Z"/>
    <path class="cls-9" d="M576.89,67.23l15.95,15.67-.56.54-15.66-15.38c.08-.28.17-.56.25-.83"/>
    <path class="cls-17" d="M576.89,67.23l15.95,15.67-.56.54-15.66-15.38c.08-.28.17-.56.25-.83h.01Z"/>
    <path class="cls-9" d="M578.79,62.28l14.09,20.69-.65.43-13.82-20.29c.12-.28.24-.56.37-.83"/>
    <path class="cls-17" d="M578.79,62.28l14.09,20.69-.65.43-13.82-20.29c.12-.28.24-.56.37-.83Z"/>
    <path class="cls-9" d="M581.8,56.82l11.11,26.24-.72.29-10.9-25.75c.16-.27.34-.53.51-.79"/>
    <path class="cls-17" d="M581.8,56.82l11.11,26.24-.72.29-10.9-25.75c.16-.27.34-.53.51-.79Z"/>
    <path class="cls-9" d="M586.38,51.26l6.55,31.89-.76.15-6.45-31.38c.22-.22.44-.44.66-.66"/>
    <path class="cls-17" d="M586.38,51.26l6.55,31.89-.76.15-6.45-31.38c.22-.22.44-.44.66-.66Z"/>
    <path class="cls-9" d="M592.78,46.58l.14,36.66h-.78l-.14-36.23c.25-.15.51-.29.78-.43"/>
    <path class="cls-17" d="M592.78,46.58l.14,36.66h-.78l-.14-36.23c.25-.15.51-.29.78-.43Z"/>
    <path class="cls-9" d="M600.69,43.79l-7.79,39.53-.76-.15,7.73-39.22c.28-.06.56-.12.82-.17"/>
    <path class="cls-17" d="M600.69,43.79l-7.79,39.53-.76-.15,7.73-39.22c.28-.06.56-.12.82-.17h0Z"/>
    <path class="cls-9" d="M609.45,43.37l-16.59,40.03-.72-.29,16.49-39.81c.27.02.54.03.82.06"/>
    <path class="cls-17" d="M609.45,43.37l-16.59,40.03-.72-.29,16.49-39.81c.27.02.54.03.82.06h0Z"/>
    <path class="cls-9" d="M618.22,45.52l-25.41,37.94-.65-.43,25.33-37.83c.24.09.49.2.73.3"/>
    <path class="cls-17" d="M618.22,45.52l-25.41,37.94-.65-.43,25.33-37.83c.24.09.49.2.73.3h0Z"/>
    <path class="cls-9" d="M625.92,50.43l-33.18,33.1-.56-.54,33.15-33.07c.2.16.39.34.58.51"/>
    <path class="cls-17" d="M625.92,50.43l-33.18,33.1-.56-.54,33.15-33.07c.2.16.39.34.58.51h0Z"/>
    <path class="cls-9" d="M631.81,57.44l-39.14,26.14-.44-.64,39.15-26.15c.15.21.29.43.42.65"/>
    <path class="cls-17" d="M631.81,57.44l-39.14,26.14-.44-.64,39.15-26.15c.15.21.29.43.42.65h.01Z"/>
    <path class="cls-9" d="M635.78,65.62l-43.19,17.98-.3-.71,43.22-17.99c.09.24.17.49.27.72"/>
    <path class="cls-17" d="M635.78,65.62l-43.19,17.98-.3-.71,43.22-17.99c.09.24.17.49.27.72Z"/>
    <path class="cls-9" d="M638.02,74.35l-45.53,9.27-.16-.75,45.56-9.27c.05.25.09.5.13.75"/>
    <path class="cls-17" d="M638.02,74.35l-45.53,9.27-.16-.75,45.56-9.27c.05.25.09.5.13.75h.01Z"/>
    <path class="cls-9" d="M638.77,83.27l-46.37.35v-.76l46.36-.35v.76"/>
    <path class="cls-17" d="M638.77,83.27l-46.37.35v-.76l46.36-.35v.76h.01Z"/>
    <path class="cls-9" d="M592.53,71.57c6.56,0,11.87,5.23,11.87,11.68h-23.76c0-6.45,5.32-11.68,11.87-11.68"/>
    <path class="cls-10" d="M592.53,72.58c6.02,0,10.9,4.66,10.9,10.41h-21.8c0-5.75,4.88-10.41,10.9-10.41"/>
    <g class="cls-21">
      <rect class="cls-32" x="574.42" y="82.96" width="58.56" height="40.45"/>
    </g>
    <g class="cls-2">
      <rect class="cls-14" x="572.77" y="82.9" width="41.37" height="41.24"/>
    </g>
    <g class="cls-3">
      <rect class="cls-20" x="606.3" y="64.74" width="32.47" height="18.43"/>
    </g>
    <path class="cls-8" d="M587.72,106.25c-4.27-8.69-2.08-14.07,3.86-17.39-2.71,4.78,1.24,8.82,6.95,13.28-4.04.83-7.83,2.03-10.67,4.03l-.15.08Z"/>
    <g class="cls-23">
      <rect class="cls-28" x="601.86" y="83.32" width="36.9" height="27.81"/>
    </g>
    <g class="cls-5">
      <rect class="cls-16" x="621.64" y="74.55" width="17.13" height="8.09"/>
    </g>
    <rect class="cls-29" x="590.22" y="61.64" width="4.3" height="2.24"/>
    <rect class="cls-17" x="590.22" y="61.64" width="4.3" height="2.24"/>
    <path class="cls-8" d="M608.02,56.75c2.8-.06,5.6.03,8.23.98,2.04.74,2.82.71,4.71,2.46l-2.86,1.79c-2.87-3.18-6.46-3.74-10.16-4.8-1.55-.45-1.48-.41.09-.44"/>
    <path class="cls-8" d="M619.68,60.18c2.31.16,4.95-1.59,6.05-1.79.37-.07,1.06.6.74.91-.21.21-1.47.66-1.82.86-.23.12,1.77-.93,2.03-.88.57.09.9,1.01.66,1.19,0,0-1.78.47-2.31.72-.5.22,1.48-.68,2.31-.72.3-.01.64.93.21,1.19-1.25.81-2.92.84-4.25,1.42.51,1.99,1.82,4.27,1.75,6.33-.1,3.22-1.87,6.21-2.42,9.22-.22,1.18-.07,1.48-.31.12-.71-3.92-.97-10.89-2.81-13.47-.75-.47-1.31-.88-2.23-1.2-.49-.2-1.22-.21-2.15-.28-.51.14-1.71.41-2.22.54.16-.94.9-3.58,2.67-3.36l4.1-.81h.01Z"/>
    <path class="cls-11" d="M620.54,94.46l-.06,1.04,1.38,1.01-.03-1.18-1.24-.93-.05.06ZM619.91,112.8l-.03,1.02.12.09h1.41l-1.49-1.11ZM619.98,110.75l-.03,1.04,2.42,1.78-.02-1.09-2.35-1.75h-.01ZM620.05,108.71l-.06,1.06,2.33,1.69-.05-1.1-2.23-1.65h.01ZM620.12,106.66l-.06,1.05,2.19,1.64v-1.13l-2.13-1.56ZM620.19,104.61l-.05,1.09,2.05,1.49-.05-1.12-1.96-1.46ZM620.26,102.56l-.06,1.08,1.91,1.42-.03-1.16-1.82-1.35h0ZM620.33,100.51l-.06,1.12,1.77,1.28-.03-1.16-1.67-1.24h-.01ZM620.4,98.46l-.07,1.1,1.63,1.2-.03-1.16-1.54-1.15h.01ZM620.47,96.42l-.07,1.12,1.53,1.11-.06-1.18-1.4-1.04h0Z"/>
    <path class="cls-17" d="M619.8,112.93l-.03,1.02.12.08h1.41l-1.49-1.1ZM619.87,110.88l-.03,1.03,2.42,1.79-.02-1.06-2.35-1.76h-.01ZM619.94,108.83l-.03,1.02,2.29,1.7-.03-1.06-2.23-1.65h.01Z"/>
    <g class="cls-6">
      <rect class="cls-34" x="587.78" y="68.42" width="9.54" height="14.3"/>
    </g>
    <g class="cls-15">
      <rect class="cls-22" x="590.22" y="57.73" width="4.85" height="10.48"/>
    </g>
    <rect class="cls-29" x="590.47" y="61.75" width="3.88" height="1.81"/>
    <path class="cls-7" d="M591.32,13.42c1.6.09,3.03,1.09,2.92,2.4-.12,1.31-.88,7.35-.88,7.35l-6.43.46,1.17-8.3s1.62-2,3.23-1.91"/>
    <path class="cls-26" d="M589.68,16.1c-.21,2.21-.49,3.71-.69,5.94,1.13-.09,1.93-.1,2.81-.19.28-2.18.5-3.78.76-5.96-.56-1.27-2.01-1.1-2.89.22"/>
    <path class="cls-26" d="M624.07,22.03c-.21-2.21-.49-3.73-.69-5.94-.87-1.31-2.34-1.48-2.89-.21.28,2.18.49,3.78.78,5.96.87.08,1.68.09,2.81.19"/>
    <path class="cls-26" d="M610.82,25.62l-.06-.81c-.24-2.82-.45-7.34-3.99-7.34s-3.66,4.67-3.88,7.45l-.03.67,7.96.02Z"/>
    <path class="cls-26" d="M606.79,16.37c4.61,0,4.72,5.51,5.08,8.94,0,0,.05.17.03.17l-.05.1h.89l-.02-.27c-.08-.91-.17-1.93-.31-2.94l2.12.05.28,2.94.06.21h.82l-.02-.19-.28-2.95c1.27.05,2.53.09,3.81.15l.15,1.17,1.7.16c.95.09,1.9.1,2.85.19l2.53.21-.12-1.3c1.63.13,3.26.27,4.89.43l.8,3.1.1.47.82.03-.13-.79-.69-2.72,5.96.72,1.31,2.96.13.29.09.23s.56.08,1.02.14v-.21h-.01l-6.49-14.79,2.3.36,2.41-2.04,1.72-3.67c.29-.6.12-3.38.12-4.27-1.33-.27-8.75-1.76-9.33-1.68l-5.27,2.36V.9l-9.32-.74v.03l-3.21,3-2.06-.05V0h-9.32v3.17l-2.03.06-3.24-3.03-9.32.75v3.01l-5.27-2.34c-.61-.08-7.96,1.39-9.32,1.64,0,.89-.19,3.66.1,4.26,2.16,4.42.59,2.81,4.44,5.65l1.79-.28-6.35,14.9c-.05.12-.01.08-.05.08v.21l.97-.14.13-.21h-.05l1.47-3.39h.05l5.95-.71-.81,3.19-.03.1-.06.62h.78l.38-1.5.64-2.51c1.47-.15,2.95-.28,4.42-.39l-.1,1.18,2.53-.21c.95-.08,1.9-.09,2.84-.19l1.7-.16.14-1.09c1.43-.07,2.88-.13,4.3-.17l-.22,2.31-.09,1.1h.83l.05-.37s.01-.09,0-.09l.29-2.99,2.19-.06.13-.83-7.37.31c.13-1,.25-1.99.39-2.99l7.89-.36c-.9,1.93-1.12,4.46-1.33,6.42l-.08.8h.86l.03-.42c.36-3.38.58-8.98,5.08-8.98M619.21,14.06c-3.96-.23-7.92-.35-11.88-.36v-2.89c4.54.01,9.08.21,13.6.57l.27,1.59-.34.07c-.66.17-1.22.53-1.65,1.02M618.4,16.14c.07.59.15,1.19.23,1.78-1.2-.06-2.4-.1-3.6-.15l-.27-3.11c1.3.05,2.59.1,3.9.17l-.1.21-.23.52.07.58ZM624.02,23.07c-.95-.08-1.9-.09-2.84-.19l-.86-.08-.1-.83c-.25-1.99-.52-3.98-.78-5.96l-.03-.29.12-.27c.3-.68.83-1.23,1.59-1.42,1.27-.34,2.5.47,3.17,1.48l.14.22.02.25c.19,1.98.51,3.95.69,5.92l.12,1.25-1.26-.1h.02ZM625.54,15.91l-.05-.52-.03-.05c1.27.13,2.55.25,3.81.41l.78,3.05c-1.41-.14-2.81-.28-4.22-.39-.1-.82-.21-1.65-.29-2.49M637.69,23.39l-.15-.02c-3.75-.5-7.51-.87-11.29-1.16l-.03-.36c-.08-.87-.19-1.74-.3-2.6,3.51.29,7,.67,10.47,1.18l1.3,2.96h.01ZM635.99,19.53l-.15-.02-4.92-.6-.78-3.05,4.49.59,1.35,3.1h0ZM634.24,15.54l-.15-.02-9.22-.98c-.72-.87-1.75-1.5-2.86-1.6l-.25-1.49c3.76.32,7.5.75,11.25,1.3l1.23,2.8h.01ZM631.36,2.7l-.05,1.97c-1.12-.15-2.23-.3-3.31-.5l3.36-1.47ZM616.73,1.43v1.87c-.64-.02-1.26-.05-1.9-.07l1.9-1.81ZM596.87,1.45l1.92,1.83c-.64.02-1.28.05-1.92.08v-1.91ZM582.29,2.77l3.45,1.5c-1.16.14-2.3.29-3.45.44v-1.94ZM575.18,9.38c-1.52-2.89-1.19-1.84-1.19-5.29,2.43-.46,4.86-.9,7.29-1.28v3.04c2.43-.34,4.86-.64,7.29-.89V1.85c2.43-.24,4.86-.44,7.29-.59v3.12c2.43-.12,4.86-.2,7.29-.25V1.01c2.43-.02,4.86-.03,7.29,0v3.14c2.43.05,4.86.12,7.29.22V1.24c2.43.15,4.86.35,7.29.58v3.08c2.43.25,4.86.57,7.29.9v-3.03c2.43.41,4.86.84,7.3,1.32,0,3.54.32,2.31-1.24,5.35-10.8-1.69-21.6-2.67-32.54-2.65-10.29.02-20.48.96-30.64,2.57l-.02.02h.01ZM577.78,12.13c-.93-.68-1.5-1.1-2.43-1.78,21.87-3.46,40.76-3.38,62.82.07l-2.07,1.77-10.66-1.4c-15.86-1.65-31-1.24-47.68,1.34M580.37,12.75c3.81-.54,7.63-.98,11.44-1.31l-.24,1.48c-1.35-.08-2.62.65-3.45,1.7l-8.94.94,1.19-2.81ZM578.8,16.44h.05l4.57-.58-.8,3.12-5.17.62,1.35-3.17ZM586.85,21.84l-.05.47c-3.67.29-7.35.67-10.99,1.15l1.25-2.96h.05c3.33-.46,6.68-.83,10.02-1.12-.1.82-.21,1.64-.29,2.46M587.54,15.91c-.08.88-.19,1.75-.3,2.63-1.25.1-2.49.22-3.74.35l.8-3.12c1.09-.13,2.19-.23,3.27-.34l-.05.49h.01ZM593.62,16.02c-.25,1.99-.52,3.97-.78,5.96l-.1.83-.86.08c-.94.09-1.89.1-2.84.19l-1.26.1.12-1.25c.19-1.98.51-3.95.69-5.92l.02-.25.15-.22c.67-1.02,1.9-1.83,3.17-1.48.75.2,1.28.74,1.59,1.42l.12.27-.03.29h.01ZM593.93,14.09c-.41-.47-.93-.83-1.53-1.03l.29-1.7c4.56-.37,9.14-.57,13.74-.58v2.89c-4.17.02-8.33.15-12.5.41M598.55,17.81c-1.37.06-2.73.12-4.11.19l.24-1.87.07-.58-.23-.52-.07-.15c1.46-.08,2.9-.16,4.36-.21l-.27,3.15ZM599.41,17.77l.27-3.15c4.73-.16,9.47-.19,14.2-.02l.27,3.11-3.21-.06c.17.27.34.54.47.83l7.3.3c.13,1,.27,1.99.39,3l-6.8-.25.06.36c-.52-3.25-1.74-6.38-5.55-6.38-1.98,0-3.26.88-4.1,2.18l-3.29.09h-.01Z"/>
    <rect class="cls-27" x="591.52" y="73.54" width="2.27" height="2.19"/>
    <path class="cls-27" d="M596.87,107.5c.42-.41.42-.81,0-1.22h-1.84v-1.1c.01-.23-.19-.43-.42-.43h-1.02c-.24,0-.43.2-.43.43v1.1h-4.17c2.8-1.74,6.23-2.71,9.41-3.37l1.77-.36-1.42-1.1c-2.51-1.97-7.02-5.45-7.38-8.84-.12-1.12.2-2.16.75-3.14l1.47-2.59-2.63,1.46c-7.43,4.13-7.5,10.96-4.08,17.95h-1.08v-.62h-1.43v.62h-1.62c-.42.34-.42.73,0,1.22,4.52.75,9.23.75,14.09,0M591.38,89.08c-2.7,4.77,1.16,8.59,6.84,13.04-4.02.82-7.66,2.01-10.48,4-4.05-8.15-2.28-13.74,3.65-17.03"/>
    <path class="cls-27" d="M615.62,61.92c-.22-.01-.41.15-.42.37-.01.22.15.42.36.43.21.02.41-.15.42-.37.01-.22-.14-.42-.36-.44"/>
    <path class="cls-27" d="M654.74,65.44c.71-6.3,5.16-10.63,10.32-13.91l.91-.59-17.21-21.85-.36-.07c-2.06-.39-4.12-.75-6.18-1.08-6.28-.84-10.73-1.41-14.62-1.79-1.06-.09-2.13-.19-3.19-.25h-.1l-.96-.07-.25-.02h-.25c-2.37-.17-4.74-.29-7.13-.37h-.02c-.28-.01-.57-.02-.86-.03-.23,0-.47,0-.71-.01-8.7-.19-16.4.1-21.87.44-1.9.12-14.16,1.33-16.44,1.61-.13.01-.24.03-.37.05-2.78.38-8.51,1.27-10.6,1.6l-17.22,21.86.91.59c5.15,3.27,9.62,7.6,10.32,13.91.69,6.18-2.64,13.37-4.98,18.99-3.14,7.53-6.05,14.99-6.05,23.28,0,1.78.27,3.54.8,5.24,1.71,5.52,5.97,9.95,10.45,13.49,5.22,4.11,11.28,7.49,17.16,10.6,6.11,3.24,12.44,6.31,18.34,9.89,3.93,2.4,9.16,5.94,11.34,10.07l.88,1.69.88-1.69c2.16-4.14,7.41-7.67,11.34-10.07,5.9-3.6,12.22-6.65,18.34-9.89,5.88-3.12,11.94-6.49,17.16-10.6,4.48-3.53,8.74-7.97,10.45-13.49.52-1.7.8-3.46.8-5.24,0-8.3-2.92-15.74-6.05-23.28-2.34-5.62-5.67-12.81-4.98-18.99M606.81,156.57c-8.29-15.83-57.97-25.12-57.97-48.86s25.1-41.18.25-57l16.3-20.73c29.24-4.92,56.82-4.95,82.81,0l16.3,20.73c-24.84,15.82.25,33.27.25,57s-49.69,33.04-57.97,48.86"/>
    <path class="cls-7" d="M582.25,4.74l3.62-.47-3.62-1.57v2.05Z"/>
    <path class="cls-27" d="M655.09,86.24c-2.74-6.62-6.05-14.07-5.23-21.37.67-5.95,3.9-10.6,8.46-14.38l.74-.6-13.08-16.36-.37-.07c-25.74-4.65-51.93-4.11-77.68.05l-.38.06-13.04,16.33.74.6c4.56,3.78,7.79,8.42,8.46,14.38.82,7.3-2.48,14.75-5.23,21.37-2.86,6.87-5.68,13.9-5.68,21.44,0,1.3.2,2.58.58,3.81,2.89,9.34,16.96,16.84,25.23,21.21,6.23,3.3,12.58,6.39,18.6,10.06,3.14,1.91,6.26,4.03,8.91,6.56l.69.67.69-.67c2.65-2.53,5.77-4.65,8.91-6.56,6.02-3.67,12.37-6.75,18.6-10.06,8.97-4.76,25.79-13.47,25.79-25.03,0-7.54-2.84-14.57-5.68-21.44M634.53,131.84c-6.23,3.3-12.64,6.42-18.65,10.08-3.04,1.85-6.34,4.06-9.08,6.7-2.74-2.63-6.04-4.84-9.07-6.7-6.01-3.66-12.43-6.78-18.65-10.08-7.87-4.17-21.95-11.64-24.74-20.63-.36-1.16-.53-2.33-.53-3.53,0-7.39,2.81-14.34,5.61-21.07,2.82-6.79,6.13-14.35,5.3-21.85-.71-6.31-4.17-11.17-8.81-15.02l6.97-8.71,17.09,16.86c-10.83,18.26-8.24,47.53,8.08,60.31,5.43,4.26,11.85,6.26,18.77,6.26,11.85,0,20.54-5.82,26.08-14.36l14.49,14.29c-4.54,3.1-9.41,5.64-12.84,7.46M609.73,43.52c.09,0,.22.02.35.05,2.41.24,4.66.75,6.77,1.5h.02c.2.07.42.15.66.24.03.01.07.02.1.05.22.09.46.19.72.3.25.12.1.05.16.07.07.03.13.06.21.09.05.01.1.05.16.08,2.14.97,4.12,2.19,5.91,3.62.02.02.05.03.06.05.29.22.71.58,1.17,1,.12.1.24.21.36.32.05.03.07.07.1.1,1.82,1.7,3.45,3.62,4.86,5.74.01.02.02.03.03.05.02.03.05.07.07.1.16.24.31.49.42.65-.06-.09-.12-.19-.17-.28l.17.28s.01.03.02.05c.02.02.03.06.05.08,1.24,1.98,2.31,4.1,3.22,6.33h-.25c-3.74.03-5.6,1.98-6.98,4.13-.05.07-.42.73-.68,1.15-.61,1.06-1.17,2.09-1.84,2.89.14-.52.24-1.04.32-1.59.03-.24.06-.49.08-.72,0-.31.02-.87.02-.87-.06-1.9-.98-3.62-1.56-5.42,1.22-.38,2.46-.46,3.66-1.23.73-.47.72-1.55.25-2.2,0,0-.07-.41-.14-.57-.05-.1-.17-.29-.27-.44-.16-.21-.35-.38-.57-.51-.28-.64-1.01-1.13-1.7-1.01-.56.1-1.23.45-1.75.69-.68.32-1.37.64-2.08.88-.21.07-.43.14-.64.2-.78-.56-1.59-1.05-2.44-1.48-.28-.14-.57-.28-1.05-.47-.25-.1-.51-.21-.78-.3-1.76-.64-3.56-.97-5.4-1.11-.61-.06-1.2-.06-2.05-.08h-.98c-.66.01-1.9-.15-2.03.79-.13.93,1.09,1.1,1.72,1.28.02,0,.06.01.08.02.51.14.16.05,1.81.49,1.81.49,3.52.97,5.08,1.83-.94.16-1.62.83-2.03,1.76l-.17.42c-.21.52-.36,1.11-.45,1.61-.09.5-.17,1.04-.17,1.04l1.28-.36c.53-.14,1.18-.22,1.71-.35.56.06,1.24.14,1.74.34h.05c.44.16.87.34,1.28.53.03.01.07.02.1.05.54.24.75.42.87.56.12.14.02.05.05.07,0,.01.01.02.02.03v.02c.67,1.22,1.04,3.26,1.27,4.95.23,1.69,0,.08.01.12v.02c.02.19.06.47.09.79.03.31.07.6.1.86l.05.42c-.49-.13-.95-.25-1.3-.35-.14-.05-.25-.07-.34-.09h-.02l-.08-.02c-.42-.12-1.27-.32-1.74-.43-.29-.06-.58-.13-.87-.17-1.33-.21-2.75.65-3.77,1.41-.31.24-.64.5-.94.78-1.01.95-1.56,1.53-2.13,2.19-.12.13-.22.27-.32.39-.54.66-1,1.26-1.5,1.97-.22.3-.43.61-.62.94-.25.42-.47.8-.64,1.09-.28.51-.52,1.01-.73,1.5h-7.8v-14.45h-3.04l-.1-1.7h.9v-3.19h-.79v-1.02h.62v-1.04c0-1.02-.71-1.77-1.59-2.15l.03-.31c0-.66-.43-1.22-1.03-1.4-.14-.03-.28-.06-.42-.06s-.27,0-.36.01c-.68.14-1.19.74-1.19,1.45l.03.32c-.87.39-1.54,1.12-1.54,2.13v1.04h.62v1.02h-.79v3.19h.96l-.1,1.7h-3.04v14.46h-12.5c0-.2,0-.39.01-.59-.02-.16-.03-.39-.01-.74.05-.78.07-.98.15-1.93,0-.15.02-.3.03-.45,0-.1.02-.22.02-.36.13-1.68.21-2.18.45-3.73.05-.25.08-.5.13-.73.2-1.17.39-2.07.59-2.89.1-.44.2-.8.28-1.16.01-.05.02-.08.03-.13.12-.42.23-.86.41-1.46.2-.68.39-1.28.61-1.93.16-.46.32-.91.5-1.37.01-.05.02-.08.05-.13.49-1.34.57-1.55,1.18-2.81.03-.07.07-.14.09-.21.67-1.42,1.41-2.8,2.22-4.11,0,0,0-.01.01-.02.46-.88,1.32-2,2.11-3.02.13-.16.25-.32.38-.49.03-.05.07-.09.1-.13.9-1.16,1.65-1.97,2.67-2.9.02-.02.05-.05.07-.06,1.32-1.25,2.74-2.37,4.28-3.36.02-.02.07-.05.09-.06,1.02-.68.57-.36,1.78-1.04.19-.1.34-.19.46-.24,1.62-.82,3.33-1.49,5.15-2,.03-.01.07-.02.09-.03.87-.25,1.55-.39,2.22-.51,1.85-.36,3.8-.54,5.83-.54h.36c.41,0,.76.01,1.24.05.22,0,.39.01.42.01.27.02.57.03.93.06M574.66,83.22h.84-.03,29.81c-1.04.32-1.97.67-2.78,1.05l-.24.12c-.25.13-.49.24-.72.37-.27.15-.53.3-.76.46-2.41,1.57-3.34,3.48-3.38,5.66,0,.97.17,2,.47,3.08s.1.35.1.35v.03c.13.38.27.78.42,1.17.49,1.28,1.09,2.52,1.71,3.76.45.88.93,1.76,1.39,2.64,2.05,3.83,4.32,7.83,5.23,12.13.54,2.53.58,5.14-.32,7.63-.9,2.49-.01.05-.01.05-.09.28-.21.54-.32.81-.09.21-.19.42-.29.61h-.05c-.79-.02-1.59-.07-2.37-.16-4.26-.44-8.4-1.78-12.06-4.06-11.81-7.36-17.03-22.44-16.63-35.63.41-13.19,0-.05,0-.05h-.01ZM590.61,70.04v-1.28h1.31v1.28h1.31v-1.28h1.31v1.28h1.31v-1.28h1.31v2.8h-9.13v-2.8h1.31v1.28h1.31-.02ZM592.53,59.36c1.2,0,2.19.73,2.19,1.62v.22h-4.39v-.22c0-.89.98-1.62,2.2-1.62M591.84,58.53c0-.36.3-.66.66-.66s.67.29.67.66v.07c-.22-.05-.43-.06-.64-.06-.22,0-.46.02-.69.07v-.08ZM594.07,62.02v1.02h-1.08v-1.02h1.08ZM592.09,63.04h-1.1v-1.02h1.1v1.02ZM594.89,65.4h-4.71v-1.54h4.71v1.54ZM594.08,67.93h-3.04l.1-1.7h2.84l.1,1.7ZM597.13,76.36h-9.13v-3.95h9.13v3.95ZM597.13,77.22v5.08h-3.38v-2.78c0-.75-.52-1.45-1.23-1.45s-1.23.69-1.23,1.45v2.78h-3.3v-5.08h9.13ZM606.7,123.14c2.78-5.84.66-11.73-2.18-17.32-1.62-3.22-3.48-6.33-4.79-9.28-.86-1.93-1.76-4.41-1.41-6.58.25-1.55,1.19-3.02,2.51-3.84,1.15-.71,2.23-1.24,3.49-1.7,1.26-.46.13-.05.13-.05l.5-.17c-3.3,6.18-2.06,12.09,3.04,17.42,2.9,3.03,7.05,4.66,11.34,6.06l-.23,6.79h3.88v-.68c-.05-1.67-.09-3.33-.15-5,2.53.81,5.02,1.67,7.24,2.8-5.32,6.97-13.11,11.56-23.37,11.56h-.01.01ZM622.74,96.14l1.27,1.3.49-.46-1.41-1.45c1.04.54,1.91,1.27,2.66,2.22l.06.2-.02.22-.29,2.93-1.47-1.53-.16-.12-.07-.24c-.3-1.13-.56-2.13-1.04-3.09M623.22,99.7l-.61,1.4c-.05-1.3-.08-2.59-.12-3.89.29.74.47,1.5.71,2.36l.02.05v.08ZM623.99,95.24l1.34.44.21-.62-1.62-.53c.75.03,1.5.16,2.21.38l.15.07.08.14,1.61,2.81-1.46-.3-.02-.03c-.72-.97-1.54-1.75-2.5-2.35M626.57,94.28l-.09.02-.08-.02c-.82-.28-1.69-.42-2.57-.44l1.83-.31-.12-.66-2.15.36c.64-.38,1.33-.69,1.91-.93l.17-.08.25.03,3.12.49-2.28,1.53h0ZM626.12,88.2l-.8.32.88-.65-.08.32ZM625.9,89.01l-.67,2.5v.1l-.12.05c-.9.36-1.99.87-2.88,1.55l2.12-2.41-.51-.44-1.86,2.12c.27-.78.62-1.52,1.1-2.24l.1-.14.15-.06,2.57-1.04h0ZM619.91,111.66l.05-1.02,2.35,1.75.02,1.05-2.41-1.78h-.01ZM621.37,113.79h-1.4l-.12-.09.03-1.02,1.48,1.1h0ZM621.83,97.4l.02,1.06-1.46-1.09.03-1.02,1.4,1.04ZM620.48,95.34l.02-.93.05-.06,1.24.93.02,1.06-1.33-1h0ZM621.9,99.54l.03,1.06-1.6-1.18.03-1.02,1.53,1.13ZM621.97,101.68l.03,1.08-1.74-1.28.03-1.02,1.67,1.24h0ZM622.04,103.83l.03,1.08-1.87-1.4.03-1.02,1.81,1.34ZM622.11,105.97l.03,1.06-2.01-1.5.03-1.02,1.96,1.45h-.01ZM622.18,108.12l.02,1.06-2.15-1.61.03-1.02,2.08,1.55h.01ZM622.24,110.26l.02,1.06-2.28-1.7.03-1.02,2.22,1.64h0ZM622.49,89.92c-.43.65-.76,1.32-1.03,2.01v-2.43h-.67v2.95c-.3-.91-.72-1.79-1.27-2.63l-.02-.17,1.49-2.85,1.54,2.95v.09l-.02.08h-.01ZM620.06,92.4l-1.85-1.87-.49.46,2.43,2.48h-.02c-.93-.8-2.18-1.4-3.18-1.79l-.12-.16-.69-2.58,2.51,1.02.16.07.09.13c.49.72.86,1.47,1.13,2.24M615.92,88.12l-.08-.3.83.61-.75-.31ZM616.33,92.26l.19-.03.17.06,1.9.91-1.9-.32-.12.66,1.83.31c-.86.03-1.71.17-2.53.44h-.19l-2.31-1.55,2.95-.46h.01ZM615.9,95.11l.1-.13.13-.08c.73-.23,1.49-.36,2.27-.39l-1.7.56.22.64,1.38-.46c-.91.58-1.71,1.33-2.42,2.23l-.07.07-.06.07-1.46.3,1.61-2.81h0ZM616.51,97.76c.69-.87,1.48-1.57,2.4-2.11l-1.25,1.23.47.47,1.57-1.54c-.64,1.09-.97,2.16-1.31,3.47-.34,1.31-.06.15-.06.15l-.1.12-1.47,1.53-.29-2.93v-.21l.03-.17h0ZM619.08,99.34c.19-.72.37-1.37.62-1.98l-.13,3.59-.56-1.25v-.14l.06-.22ZM622.82,107.88c-.06-1.74-.12-3.48-.17-5.22l.59-1.37-.02,1.91h.67l.02-1.82.66,1.71.64-.23-.69-1.83,1.31,1.35.5-.46-.23-.23.2-1.97.52,1.91.66-.17-.51-1.86,1.1,1.57.56-.38-1.24-1.75,1.7,1.08.36-.56-1.6-1.02.54.12.2.34.39-.22.73.15.14-.66-.2-.03.41-.39-1.63-1.69,2,1.16.35-.57-2.21-1.27,2.46.54.15-.65-2.03-.45,2.07-.07-.02-.66-2.31.08,2.22-.72-.21-.64-2.21.72,1.12-.75.83-.56-.38-.56-.61.41-1.65-.25,2.15-.23-.07-.66-2.43.27,2.2-.94-.27-.61-2.21.95,1.82-1.55-.44-.5-1.82,1.55,1.3-2.05-.57-.35-.02.05-.09-.22-.65.27.09-.35-.24-.06.44-.32-.41-.54-2.11,1.54,1.56-2.01-.53-.41-1.7,2.19.94-2.57-.64-.23-.79,2.16.21-2.29-.67-.06-.22,2.52-.5-2.51-.66.13.5,2.49-.8-1.52.3-.57-.6-.31-.07.14-.02-.05-.6.3.24.47-.74,1.42.5-2.49-.66-.13-.5,2.5-.23-2.52-.67.06.21,2.28-.79-2.16-.64.22.94,2.57-1.7-2.2-.54.41,1.56,2.01-2.11-1.54-.41.53.56.41-.29.07.07.28-.69-.28-.13.32-.5.3,1.3,2.05-1.81-1.55-.44.5,1.82,1.55-2.21-.95-.27.61,2.2.94-2.43-.27-.07.66,2.15.23-1.48.23-.58-.38-.37.56.59.39.02.16.17-.02,1.17.78-2.21-.72-.21.64,2.22.72-2.31-.08-.02.66,2.08.07-2.03.45.15.65,2.46-.54-2.2,1.27.34.57,2.01-1.16-1.64,1.69.41.39-.2.03.14.66.72-.15.39.22.2-.34.54-.12-1.6,1.02.36.56,1.7-1.08-1.24,1.75.56.38,1.1-1.57-.5,1.86.66.17.51-1.91.2,1.97-.23.23.5.46,1.31-1.35-.69,1.83.64.23.66-1.71.02,1.82h.67l-.02-1.92.53,1.22-.15,4.27c-4.12-1.37-8.03-2.93-10.75-5.79-6.25-6.53-5.2-12.51-2.6-17.01,2.59-4.5,0-.02,0-.02v-.13l.1-.2v-.05h.02l.1-.2v-.02l.1-.16v-.02h1.52l30.71.36c-.05,9.96-2.77,19.9-8.16,27.32-2.4-1.24-5.07-2.14-7.78-3M628,96.79l1.33,1.38-.62-.13-.72-1.25h.01ZM626.24,89.75l.3-1.13.54-.22-.86,1.35h.01ZM615.55,89.75l-.91-1.45.59.24.32,1.2ZM614,96.79l-.71,1.25-.61.13,1.33-1.38h-.01ZM638.62,82.43h-17.06c5.74-3.55,7.45-8.42,10.57-8.05,1.77.21,4.29.82,5.94,1.04,1.64.22,0,0,0,0,.32,2.29.51,4.63.54,6.97v.06h.01ZM637.56,74.49c-.82-.14-1.64-.3-2.46-.46-.94-.19-1.91-.37-2.87-.49-.37-.05-.73-.03-1.09.03-1.74.32-3.22,2.03-4.36,3.24-1.77,1.89-3.44,3.52-5.66,4.89l-1.33.72-13.21-.16c1.71-3.82,6.9-9.88,9.63-9.45,1.33.21,3.11.75,4.57,1.1.16,1.55.3,3.12.58,4.64.09.54.06,1.64,1,1.61.93-.03.82-1.13.91-1.68.31-1.7.96-3.3,1.52-4.95,3.36-2.19,3.48-8.88,9.99-8.94.2,0,.39.01.59.05,1.19,3.14,2.07,6.47,2.62,9.89l-.39-.06v.02ZM615.53,60.98l3.89-.8c2.3.16,5-1.74,6.1-1.93.24-.05.61.21.75.47l-2.3,1.08.29.6,2.49-1.18c.29.23.46.66.43.9l-2.67.64.15.65,2.82-.66c.07.25.05.56-.16.69-1.25.8-2.9.83-4.22,1.42.5,1.99,1.81,4.26,1.74,6.31,0,.22-.02.43-.05.64l-1.46-3.03-.61.29,1.9,3.88c-.14.72-.34,1.42-.57,2.12l-1.48-5.03-.65.19,1.77,5.94c-.49,1.41-1.01,2.81-1.26,4.21-.21,1.17,0,1.43-.24.07-.71-3.91-.74-10.82-2.58-13.39-.75-.47-1.59-.87-2.51-1.19-.49-.2-1.2-.34-2.13-.41-.51.13-1.46.34-1.96.47.16-.94.76-3.16,2.53-2.94M608.13,57.01c-1.54-.44-1.48-.41.09-.44,2.78-.06,5.51.2,8.11,1.13,1.12.41,2.23.94,3.32,1.64h-.29s-3.18.64-3.18.64c-2.43-1.64-5.22-2.16-8.05-2.97M648.3,123.39l-14.88-14.67c10.98-18.34,8.22-47.98-8.39-60.68-5.36-4.11-11.65-6.06-18.42-6.06-11.86,0-20.57,5.9-26.12,14.53l-16.98-16.74,4.41-5.52c25.67-4.14,51.7-4.67,77.33-.05l12.25,15.33c-4.64,3.86-8.1,8.71-8.81,15.02-.84,7.51,2.48,15.05,5.29,21.85,2.8,6.73,5.61,13.68,5.61,21.07,0,6.14-5.23,11.56-11.32,15.91"/>
  </g>
</svg>